<svg xmlns="http://www.w3.org/2000/svg" xmlns:xlink="http://www.w3.org/1999/xlink" width="1120" zoomAndPan="magnify" viewBox="0 0 840 839.999992" height="1120" preserveAspectRatio="xMidYMid meet" version="1.0"><defs><clipPath id="02ef5e901b"><path d="M 286.773438 248.457031 L 553.015625 248.457031 L 553.015625 514.699219 L 286.773438 514.699219 Z M 286.773438 248.457031 " clip-rule="nonzero"/></clipPath><clipPath id="3e9bffb964"><path d="M 347.570312 269.804688 L 347.921875 269.574219 C 368.671875 256.214844 393.378906 248.457031 419.890625 248.457031 C 456.648438 248.457031 489.933594 263.355469 514.023438 287.449219 C 538.117188 311.539062 553.015625 344.824219 553.015625 381.582031 C 553.015625 418.339844 538.117188 451.621094 514.023438 475.714844 C 489.933594 499.800781 456.648438 514.707031 419.890625 514.707031 C 383.132812 514.707031 349.851562 499.804688 325.761719 475.714844 C 301.675781 451.617188 286.773438 418.332031 286.773438 381.574219 C 286.773438 344.816406 301.675781 311.535156 325.765625 287.441406 C 332.375 280.832031 339.683594 274.910156 347.570312 269.804688 M 442.234375 385.179688 L 413.03125 402.039062 C 410.378906 403.574219 407.34375 403.574219 404.691406 402.039062 C 402.042969 400.507812 400.523438 397.878906 400.523438 394.820312 L 400.523438 361.09375 C 400.523438 358.035156 402.035156 355.40625 404.691406 353.875 C 407.34375 352.339844 410.378906 352.339844 413.03125 353.875 L 442.234375 370.734375 C 444.886719 372.265625 446.40625 374.894531 446.40625 377.953125 C 446.40625 381.019531 444.890625 383.652344 442.234375 385.179688 Z M 419.890625 327.863281 C 413.304688 327.863281 407.964844 322.523438 407.964844 315.933594 C 407.964844 309.347656 413.304688 304.003906 419.890625 304.003906 C 441.308594 304.003906 460.703125 312.6875 474.746094 326.726562 C 488.78125 340.761719 497.46875 360.15625 497.46875 381.582031 C 497.46875 403 488.785156 422.394531 474.746094 436.433594 C 460.710938 450.46875 441.316406 459.15625 419.890625 459.15625 C 398.46875 459.15625 379.082031 450.476562 365.039062 436.433594 C 351 422.398438 342.316406 403.003906 342.316406 381.582031 L 342.316406 304.625 C 322.730469 324.371094 310.625 351.5625 310.625 381.574219 C 310.625 411.746094 322.859375 439.066406 342.625 458.835938 C 362.394531 478.609375 389.714844 490.835938 419.886719 490.835938 C 450.058594 490.835938 477.378906 478.605469 497.144531 458.835938 C 516.914062 439.066406 529.148438 411.746094 529.148438 381.574219 C 529.148438 351.40625 516.914062 324.082031 497.144531 304.316406 C 477.378906 284.542969 450.058594 272.3125 419.886719 272.3125 C 400.363281 272.3125 382.035156 277.4375 366.167969 286.40625 L 366.167969 381.574219 C 366.167969 396.40625 372.183594 409.84375 381.898438 419.5625 C 391.617188 429.277344 405.050781 435.292969 419.886719 435.292969 C 434.722656 435.292969 448.15625 429.277344 457.871094 419.5625 C 467.589844 409.84375 473.605469 396.410156 473.605469 381.574219 C 473.605469 366.738281 467.589844 353.304688 457.871094 343.589844 C 448.160156 333.878906 434.730469 327.863281 419.890625 327.863281 Z M 419.890625 327.863281 " clip-rule="nonzero"/></clipPath><linearGradient x1="223.108214" gradientTransform="matrix(0.585036, 0, 0, 0.585036, 286.773131, 248.456128)" y1="459.358856" x2="231.979064" gradientUnits="userSpaceOnUse" y2="-4.268884" id="8f107696fe"><stop stop-opacity="1" stop-color="rgb(97.299194%, 58.399963%, 13.299561%)" offset="0"/><stop stop-opacity="1" stop-color="rgb(97.280884%, 58.213806%, 13.235474%)" offset="0.0187743"/><stop stop-opacity="1" stop-color="rgb(97.262573%, 58.027649%, 13.171387%)" offset="0.03125"/><stop stop-opacity="1" stop-color="rgb(97.242737%, 57.833862%, 13.104248%)" offset="0.046875"/><stop stop-opacity="1" stop-color="rgb(97.203064%, 57.447815%, 12.973022%)" offset="0.0625"/><stop stop-opacity="1" stop-color="rgb(97.164917%, 57.061768%, 12.840271%)" offset="0.078125"/><stop stop-opacity="1" stop-color="rgb(97.125244%, 56.67572%, 12.70752%)" offset="0.09375"/><stop stop-opacity="1" stop-color="rgb(97.087097%, 56.289673%, 12.574768%)" offset="0.109375"/><stop stop-opacity="1" stop-color="rgb(97.04895%, 55.903625%, 12.443542%)" offset="0.125"/><stop stop-opacity="1" stop-color="rgb(97.009277%, 55.517578%, 12.310791%)" offset="0.140625"/><stop stop-opacity="1" stop-color="rgb(96.97113%, 55.131531%, 12.17804%)" offset="0.15625"/><stop stop-opacity="1" stop-color="rgb(96.931458%, 54.747009%, 12.045288%)" offset="0.171875"/><stop stop-opacity="1" stop-color="rgb(96.893311%, 54.360962%, 11.912537%)" offset="0.1875"/><stop stop-opacity="1" stop-color="rgb(96.855164%, 53.974915%, 11.781311%)" offset="0.203125"/><stop stop-opacity="1" stop-color="rgb(96.815491%, 53.588867%, 11.64856%)" offset="0.21875"/><stop stop-opacity="1" stop-color="rgb(96.777344%, 53.20282%, 11.515808%)" offset="0.234375"/><stop stop-opacity="1" stop-color="rgb(96.737671%, 52.816772%, 11.383057%)" offset="0.25"/><stop stop-opacity="1" stop-color="rgb(96.699524%, 52.430725%, 11.250305%)" offset="0.265625"/><stop stop-opacity="1" stop-color="rgb(96.661377%, 52.044678%, 11.11908%)" offset="0.28125"/><stop stop-opacity="1" stop-color="rgb(96.621704%, 51.65863%, 10.986328%)" offset="0.296875"/><stop stop-opacity="1" stop-color="rgb(96.583557%, 51.272583%, 10.853577%)" offset="0.3125"/><stop stop-opacity="1" stop-color="rgb(96.543884%, 50.886536%, 10.720825%)" offset="0.328125"/><stop stop-opacity="1" stop-color="rgb(96.505737%, 50.500488%, 10.5896%)" offset="0.34375"/><stop stop-opacity="1" stop-color="rgb(96.46759%, 50.114441%, 10.456848%)" offset="0.359375"/><stop stop-opacity="1" stop-color="rgb(96.427917%, 49.728394%, 10.324097%)" offset="0.375"/><stop stop-opacity="1" stop-color="rgb(96.389771%, 49.342346%, 10.191345%)" offset="0.390625"/><stop stop-opacity="1" stop-color="rgb(96.350098%, 48.956299%, 10.058594%)" offset="0.40625"/><stop stop-opacity="1" stop-color="rgb(96.311951%, 48.570251%, 9.927368%)" offset="0.421875"/><stop stop-opacity="1" stop-color="rgb(96.273804%, 48.18573%, 9.794617%)" offset="0.4375"/><stop stop-opacity="1" stop-color="rgb(96.234131%, 47.799683%, 9.661865%)" offset="0.453125"/><stop stop-opacity="1" stop-color="rgb(96.195984%, 47.413635%, 9.529114%)" offset="0.46875"/><stop stop-opacity="1" stop-color="rgb(96.156311%, 47.027588%, 9.397888%)" offset="0.484375"/><stop stop-opacity="1" stop-color="rgb(96.118164%, 46.641541%, 9.265137%)" offset="0.5"/><stop stop-opacity="1" stop-color="rgb(96.080017%, 46.255493%, 9.132385%)" offset="0.515625"/><stop stop-opacity="1" stop-color="rgb(96.040344%, 45.869446%, 8.999634%)" offset="0.53125"/><stop stop-opacity="1" stop-color="rgb(96.002197%, 45.483398%, 8.866882%)" offset="0.546875"/><stop stop-opacity="1" stop-color="rgb(95.962524%, 45.097351%, 8.735657%)" offset="0.5625"/><stop stop-opacity="1" stop-color="rgb(95.924377%, 44.711304%, 8.602905%)" offset="0.578125"/><stop stop-opacity="1" stop-color="rgb(95.88623%, 44.325256%, 8.470154%)" offset="0.59375"/><stop stop-opacity="1" stop-color="rgb(95.846558%, 43.939209%, 8.337402%)" offset="0.609375"/><stop stop-opacity="1" stop-color="rgb(95.808411%, 43.553162%, 8.204651%)" offset="0.625"/><stop stop-opacity="1" stop-color="rgb(95.768738%, 43.167114%, 8.073425%)" offset="0.640625"/><stop stop-opacity="1" stop-color="rgb(95.730591%, 42.781067%, 7.940674%)" offset="0.65625"/><stop stop-opacity="1" stop-color="rgb(95.692444%, 42.39502%, 7.807922%)" offset="0.671875"/><stop stop-opacity="1" stop-color="rgb(95.652771%, 42.008972%, 7.675171%)" offset="0.6875"/><stop stop-opacity="1" stop-color="rgb(95.614624%, 41.622925%, 7.543945%)" offset="0.703125"/><stop stop-opacity="1" stop-color="rgb(95.574951%, 41.238403%, 7.411194%)" offset="0.71875"/><stop stop-opacity="1" stop-color="rgb(95.536804%, 40.852356%, 7.278442%)" offset="0.734375"/><stop stop-opacity="1" stop-color="rgb(95.498657%, 40.466309%, 7.145691%)" offset="0.75"/><stop stop-opacity="1" stop-color="rgb(95.458984%, 40.080261%, 7.012939%)" offset="0.765625"/><stop stop-opacity="1" stop-color="rgb(95.420837%, 39.694214%, 6.881714%)" offset="0.78125"/><stop stop-opacity="1" stop-color="rgb(95.381165%, 39.308167%, 6.748962%)" offset="0.796875"/><stop stop-opacity="1" stop-color="rgb(95.343018%, 38.922119%, 6.616211%)" offset="0.8125"/><stop stop-opacity="1" stop-color="rgb(95.304871%, 38.536072%, 6.483459%)" offset="0.828125"/><stop stop-opacity="1" stop-color="rgb(95.265198%, 38.150024%, 6.350708%)" offset="0.84375"/><stop stop-opacity="1" stop-color="rgb(95.227051%, 37.763977%, 6.219482%)" offset="0.859375"/><stop stop-opacity="1" stop-color="rgb(95.187378%, 37.37793%, 6.086731%)" offset="0.875"/><stop stop-opacity="1" stop-color="rgb(95.149231%, 36.991882%, 5.953979%)" offset="0.890625"/><stop stop-opacity="1" stop-color="rgb(95.111084%, 36.605835%, 5.821228%)" offset="0.90625"/><stop stop-opacity="1" stop-color="rgb(95.071411%, 36.219788%, 5.690002%)" offset="0.921875"/><stop stop-opacity="1" stop-color="rgb(95.033264%, 35.83374%, 5.557251%)" offset="0.9375"/><stop stop-opacity="1" stop-color="rgb(94.993591%, 35.447693%, 5.4245%)" offset="0.953125"/><stop stop-opacity="1" stop-color="rgb(94.955444%, 35.061646%, 5.291748%)" offset="0.96875"/><stop stop-opacity="1" stop-color="rgb(94.917297%, 34.683228%, 5.162048%)" offset="0.981226"/><stop stop-opacity="1" stop-color="rgb(94.898987%, 34.498596%, 5.099487%)" offset="1"/></linearGradient></defs><g clip-path="url(#02ef5e901b)"><g clip-path="url(#3e9bffb964)"><path fill="url(#8f107696fe)" d="M 286.773438 248.457031 L 286.773438 514.699219 L 553.015625 514.699219 L 553.015625 248.457031 Z M 286.773438 248.457031 " fill-rule="nonzero"/></g></g></svg>