<svg xmlns="http://www.w3.org/2000/svg" xmlns:xlink="http://www.w3.org/1999/xlink" width="1366" zoomAndPan="magnify" viewBox="0 0 1024.5 576" height="768" preserveAspectRatio="xMidYMid meet" version="1.0"><defs><g/><clipPath id="f97957a7b9"><path d="M 327.234375 225.449219 L 414.191406 225.449219 L 414.191406 312.402344 L 327.234375 312.402344 Z M 327.234375 225.449219 " clip-rule="nonzero"/></clipPath><clipPath id="d8c051cdb0"><path d="M 347.089844 232.421875 L 347.207031 232.347656 C 353.984375 227.980469 362.050781 225.449219 370.710938 225.449219 C 382.714844 225.449219 393.585938 230.316406 401.453125 238.183594 C 409.324219 246.050781 414.191406 256.921875 414.191406 268.925781 C 414.191406 280.933594 409.324219 291.800781 401.453125 299.671875 C 393.585938 307.535156 382.714844 312.40625 370.710938 312.40625 C 358.707031 312.40625 347.835938 307.539062 339.96875 299.671875 C 332.101562 291.800781 327.234375 280.929688 327.234375 268.925781 C 327.234375 256.917969 332.101562 246.050781 339.96875 238.179688 C 342.128906 236.023438 344.515625 234.089844 347.089844 232.421875 M 378.007812 270.101562 L 368.46875 275.609375 C 367.605469 276.109375 366.613281 276.109375 365.746094 275.609375 C 364.882812 275.109375 364.386719 274.25 364.386719 273.25 L 364.386719 262.234375 C 364.386719 261.234375 364.878906 260.378906 365.746094 259.878906 C 366.613281 259.378906 367.605469 259.378906 368.46875 259.878906 L 373.238281 262.632812 L 378.007812 265.382812 C 378.875 265.886719 379.371094 266.742188 379.371094 267.742188 C 379.371094 268.742188 378.875 269.601562 378.007812 270.101562 Z M 370.710938 251.382812 C 368.558594 251.382812 366.816406 249.636719 366.816406 247.488281 C 366.816406 245.335938 368.558594 243.589844 370.710938 243.589844 C 377.707031 243.589844 384.039062 246.425781 388.625 251.011719 C 393.210938 255.59375 396.046875 261.929688 396.046875 268.925781 C 396.046875 275.921875 393.210938 282.257812 388.625 286.84375 C 384.042969 291.425781 377.707031 294.261719 370.710938 294.261719 C 363.714844 294.261719 357.382812 291.425781 352.796875 286.84375 C 348.210938 282.257812 345.375 275.925781 345.375 268.925781 L 345.375 243.792969 C 338.976562 250.242188 335.023438 259.121094 335.023438 268.925781 C 335.023438 278.777344 339.019531 287.703125 345.476562 294.15625 C 351.933594 300.617188 360.855469 304.609375 370.710938 304.609375 C 380.5625 304.609375 389.484375 300.613281 395.941406 294.15625 C 402.398438 287.703125 406.394531 278.777344 406.394531 268.925781 C 406.394531 259.070312 402.398438 250.148438 395.941406 243.691406 C 389.484375 237.234375 380.5625 233.238281 370.710938 233.238281 C 364.332031 233.238281 358.347656 234.914062 353.164062 237.84375 L 353.164062 268.925781 C 353.164062 273.769531 355.128906 278.15625 358.304688 281.332031 C 361.476562 284.503906 365.863281 286.46875 370.710938 286.46875 C 375.554688 286.46875 379.941406 284.503906 383.117188 281.332031 C 386.289062 278.15625 388.253906 273.769531 388.253906 268.925781 C 388.253906 264.078125 386.289062 259.691406 383.117188 256.519531 C 379.945312 253.347656 375.558594 251.382812 370.710938 251.382812 Z M 370.710938 251.382812 " clip-rule="nonzero"/></clipPath><linearGradient x1="223.108215" gradientTransform="matrix(0.191074, 0, 0, 0.191074, 327.234396, 225.448058)" y1="459.358775" x2="231.979066" gradientUnits="userSpaceOnUse" y2="-4.268961" id="ad586f27b0"><stop stop-opacity="1" stop-color="rgb(97.299194%, 58.399963%, 13.299561%)" offset="0"/><stop stop-opacity="1" stop-color="rgb(97.280884%, 58.213806%, 13.235474%)" offset="0.0187743"/><stop stop-opacity="1" stop-color="rgb(97.262573%, 58.027649%, 13.171387%)" offset="0.03125"/><stop stop-opacity="1" stop-color="rgb(97.242737%, 57.833862%, 13.104248%)" offset="0.046875"/><stop stop-opacity="1" stop-color="rgb(97.203064%, 57.447815%, 12.973022%)" offset="0.0625"/><stop stop-opacity="1" stop-color="rgb(97.164917%, 57.061768%, 12.840271%)" offset="0.078125"/><stop stop-opacity="1" stop-color="rgb(97.125244%, 56.67572%, 12.70752%)" offset="0.09375"/><stop stop-opacity="1" stop-color="rgb(97.087097%, 56.289673%, 12.574768%)" offset="0.109375"/><stop stop-opacity="1" stop-color="rgb(97.04895%, 55.903625%, 12.443542%)" offset="0.125"/><stop stop-opacity="1" stop-color="rgb(97.009277%, 55.517578%, 12.310791%)" offset="0.140625"/><stop stop-opacity="1" stop-color="rgb(96.97113%, 55.131531%, 12.17804%)" offset="0.15625"/><stop stop-opacity="1" stop-color="rgb(96.931458%, 54.747009%, 12.045288%)" offset="0.171875"/><stop stop-opacity="1" stop-color="rgb(96.893311%, 54.360962%, 11.912537%)" offset="0.1875"/><stop stop-opacity="1" stop-color="rgb(96.855164%, 53.974915%, 11.781311%)" offset="0.203125"/><stop stop-opacity="1" stop-color="rgb(96.815491%, 53.588867%, 11.64856%)" offset="0.21875"/><stop stop-opacity="1" stop-color="rgb(96.777344%, 53.20282%, 11.515808%)" offset="0.234375"/><stop stop-opacity="1" stop-color="rgb(96.737671%, 52.816772%, 11.383057%)" offset="0.25"/><stop stop-opacity="1" stop-color="rgb(96.699524%, 52.430725%, 11.250305%)" offset="0.265625"/><stop stop-opacity="1" stop-color="rgb(96.661377%, 52.044678%, 11.11908%)" offset="0.28125"/><stop stop-opacity="1" stop-color="rgb(96.621704%, 51.65863%, 10.986328%)" offset="0.296875"/><stop stop-opacity="1" stop-color="rgb(96.583557%, 51.272583%, 10.853577%)" offset="0.3125"/><stop stop-opacity="1" stop-color="rgb(96.543884%, 50.886536%, 10.720825%)" offset="0.328125"/><stop stop-opacity="1" stop-color="rgb(96.505737%, 50.500488%, 10.5896%)" offset="0.34375"/><stop stop-opacity="1" stop-color="rgb(96.46759%, 50.114441%, 10.456848%)" offset="0.359375"/><stop stop-opacity="1" stop-color="rgb(96.427917%, 49.728394%, 10.324097%)" offset="0.375"/><stop stop-opacity="1" stop-color="rgb(96.389771%, 49.342346%, 10.191345%)" offset="0.390625"/><stop stop-opacity="1" stop-color="rgb(96.350098%, 48.956299%, 10.058594%)" offset="0.40625"/><stop stop-opacity="1" stop-color="rgb(96.311951%, 48.570251%, 9.927368%)" offset="0.421875"/><stop stop-opacity="1" stop-color="rgb(96.273804%, 48.184204%, 9.794617%)" offset="0.4375"/><stop stop-opacity="1" stop-color="rgb(96.234131%, 47.799683%, 9.661865%)" offset="0.453125"/><stop stop-opacity="1" stop-color="rgb(96.195984%, 47.413635%, 9.529114%)" offset="0.46875"/><stop stop-opacity="1" stop-color="rgb(96.156311%, 47.027588%, 9.397888%)" offset="0.484375"/><stop stop-opacity="1" stop-color="rgb(96.118164%, 46.641541%, 9.265137%)" offset="0.5"/><stop stop-opacity="1" stop-color="rgb(96.080017%, 46.255493%, 9.132385%)" offset="0.515625"/><stop stop-opacity="1" stop-color="rgb(96.040344%, 45.869446%, 8.999634%)" offset="0.53125"/><stop stop-opacity="1" stop-color="rgb(96.002197%, 45.483398%, 8.866882%)" offset="0.546875"/><stop stop-opacity="1" stop-color="rgb(95.962524%, 45.097351%, 8.735657%)" offset="0.5625"/><stop stop-opacity="1" stop-color="rgb(95.924377%, 44.711304%, 8.602905%)" offset="0.578125"/><stop stop-opacity="1" stop-color="rgb(95.88623%, 44.325256%, 8.470154%)" offset="0.59375"/><stop stop-opacity="1" stop-color="rgb(95.846558%, 43.939209%, 8.337402%)" offset="0.609375"/><stop stop-opacity="1" stop-color="rgb(95.808411%, 43.553162%, 8.204651%)" offset="0.625"/><stop stop-opacity="1" stop-color="rgb(95.768738%, 43.167114%, 8.073425%)" offset="0.640625"/><stop stop-opacity="1" stop-color="rgb(95.730591%, 42.781067%, 7.940674%)" offset="0.65625"/><stop stop-opacity="1" stop-color="rgb(95.692444%, 42.39502%, 7.807922%)" offset="0.671875"/><stop stop-opacity="1" stop-color="rgb(95.652771%, 42.008972%, 7.675171%)" offset="0.6875"/><stop stop-opacity="1" stop-color="rgb(95.614624%, 41.622925%, 7.543945%)" offset="0.703125"/><stop stop-opacity="1" stop-color="rgb(95.574951%, 41.238403%, 7.411194%)" offset="0.71875"/><stop stop-opacity="1" stop-color="rgb(95.536804%, 40.852356%, 7.278442%)" offset="0.734375"/><stop stop-opacity="1" stop-color="rgb(95.498657%, 40.466309%, 7.145691%)" offset="0.75"/><stop stop-opacity="1" stop-color="rgb(95.458984%, 40.080261%, 7.012939%)" offset="0.765625"/><stop stop-opacity="1" stop-color="rgb(95.420837%, 39.694214%, 6.881714%)" offset="0.78125"/><stop stop-opacity="1" stop-color="rgb(95.381165%, 39.308167%, 6.748962%)" offset="0.796875"/><stop stop-opacity="1" stop-color="rgb(95.343018%, 38.922119%, 6.616211%)" offset="0.8125"/><stop stop-opacity="1" stop-color="rgb(95.304871%, 38.536072%, 6.483459%)" offset="0.828125"/><stop stop-opacity="1" stop-color="rgb(95.265198%, 38.150024%, 6.350708%)" offset="0.84375"/><stop stop-opacity="1" stop-color="rgb(95.227051%, 37.763977%, 6.219482%)" offset="0.859375"/><stop stop-opacity="1" stop-color="rgb(95.187378%, 37.37793%, 6.086731%)" offset="0.875"/><stop stop-opacity="1" stop-color="rgb(95.149231%, 36.991882%, 5.953979%)" offset="0.890625"/><stop stop-opacity="1" stop-color="rgb(95.111084%, 36.605835%, 5.821228%)" offset="0.90625"/><stop stop-opacity="1" stop-color="rgb(95.071411%, 36.219788%, 5.690002%)" offset="0.921875"/><stop stop-opacity="1" stop-color="rgb(95.033264%, 35.83374%, 5.557251%)" offset="0.9375"/><stop stop-opacity="1" stop-color="rgb(94.993591%, 35.447693%, 5.4245%)" offset="0.953125"/><stop stop-opacity="1" stop-color="rgb(94.955444%, 35.061646%, 5.291748%)" offset="0.96875"/><stop stop-opacity="1" stop-color="rgb(94.917297%, 34.683228%, 5.162048%)" offset="0.981226"/><stop stop-opacity="1" stop-color="rgb(94.898987%, 34.498596%, 5.099487%)" offset="1"/></linearGradient></defs><g fill="#ffffff" fill-opacity="1"><g transform="translate(428.097797, 305.261672)"><g><path d="M 14.9375 -40.328125 L 24.765625 -18.390625 L 34.59375 -40.328125 L 51.109375 -40.328125 L 29.484375 0 L 20.046875 0 L -1.578125 -40.328125 Z M 14.9375 -40.328125 "/></g></g></g><g fill="#ffffff" fill-opacity="1"><g transform="translate(470.227216, 305.261672)"><g><path d="M 6.046875 -62.828125 C 7.671875 -64.453125 9.609375 -65.265625 11.859375 -65.265625 C 14.117188 -65.265625 16.0625 -64.453125 17.6875 -62.828125 C 19.3125 -61.203125 20.125 -59.257812 20.125 -57 C 20.125 -54.75 19.3125 -52.8125 17.6875 -51.1875 C 16.0625 -49.5625 14.117188 -48.75 11.859375 -48.75 C 9.609375 -48.75 7.671875 -49.5625 6.046875 -51.1875 C 4.421875 -52.8125 3.609375 -54.75 3.609375 -57 C 3.609375 -59.257812 4.421875 -61.203125 6.046875 -62.828125 Z M 4.71875 -40.328125 L 4.71875 0 L 18.640625 0 L 18.640625 -40.328125 Z M 4.71875 -40.328125 "/></g></g></g><g fill="#ffffff" fill-opacity="1"><g transform="translate(486.574637, 305.261672)"><g><path d="M 22.25 -41.515625 C 24.550781 -41.515625 26.828125 -41.25 29.078125 -40.71875 C 31.335938 -40.195312 33.019531 -39.675781 34.125 -39.15625 L 35.78125 -38.375 L 31.21875 -29.25 C 28.070312 -30.925781 25.082031 -31.765625 22.25 -31.765625 C 20.675781 -31.765625 19.5625 -31.59375 18.90625 -31.25 C 18.25 -30.914062 17.921875 -30.273438 17.921875 -29.328125 C 17.921875 -29.117188 17.945312 -28.910156 18 -28.703125 C 18.050781 -28.492188 18.15625 -28.296875 18.3125 -28.109375 C 18.476562 -27.921875 18.625 -27.757812 18.75 -27.625 C 18.882812 -27.5 19.109375 -27.359375 19.421875 -27.203125 C 19.734375 -27.046875 19.976562 -26.925781 20.15625 -26.84375 C 20.34375 -26.769531 20.644531 -26.65625 21.0625 -26.5 C 21.488281 -26.34375 21.804688 -26.222656 22.015625 -26.140625 C 22.222656 -26.066406 22.578125 -25.945312 23.078125 -25.78125 C 23.578125 -25.625 23.957031 -25.519531 24.21875 -25.46875 C 25.84375 -25 27.253906 -24.472656 28.453125 -23.890625 C 29.660156 -23.316406 30.929688 -22.53125 32.265625 -21.53125 C 33.609375 -20.539062 34.644531 -19.285156 35.375 -17.765625 C 36.113281 -16.242188 36.484375 -14.515625 36.484375 -12.578125 C 36.484375 -3.410156 30.113281 1.171875 17.375 1.171875 C 14.488281 1.171875 11.75 0.726562 9.15625 -0.15625 C 6.5625 -1.050781 4.6875 -1.941406 3.53125 -2.828125 L 1.8125 -4.25 L 7.46875 -13.765625 C 7.882812 -13.390625 8.429688 -12.953125 9.109375 -12.453125 C 9.796875 -11.960938 11.03125 -11.285156 12.8125 -10.421875 C 14.59375 -9.554688 16.140625 -9.125 17.453125 -9.125 C 20.335938 -9.125 21.78125 -10.09375 21.78125 -12.03125 C 21.78125 -12.914062 21.410156 -13.609375 20.671875 -14.109375 C 19.941406 -14.609375 18.695312 -15.171875 16.9375 -15.796875 C 15.1875 -16.429688 13.8125 -17.007812 12.8125 -17.53125 C 10.300781 -18.84375 8.3125 -20.320312 6.84375 -21.96875 C 5.375 -23.625 4.640625 -25.816406 4.640625 -28.546875 C 4.640625 -32.628906 6.222656 -35.8125 9.390625 -38.09375 C 12.566406 -40.375 16.851562 -41.515625 22.25 -41.515625 Z M 22.25 -41.515625 "/></g></g></g><g fill="#ffffff" fill-opacity="1"><g transform="translate(517.856756, 305.261672)"><g><path d="M 8.53125 -4.796875 C 4.050781 -8.773438 1.8125 -13.882812 1.8125 -20.125 C 1.8125 -26.363281 4.140625 -31.488281 8.796875 -35.5 C 13.460938 -39.507812 19.234375 -41.515625 26.109375 -41.515625 C 32.867188 -41.515625 38.566406 -39.492188 43.203125 -35.453125 C 47.835938 -31.421875 50.15625 -26.3125 50.15625 -20.125 C 50.15625 -13.9375 47.890625 -8.835938 43.359375 -4.828125 C 38.828125 -0.828125 33.078125 1.171875 26.109375 1.171875 C 18.867188 1.171875 13.007812 -0.816406 8.53125 -4.796875 Z M 19.296875 -26.96875 C 17.492188 -25.1875 16.59375 -22.90625 16.59375 -20.125 C 16.59375 -17.34375 17.457031 -15.070312 19.1875 -13.3125 C 20.914062 -11.5625 23.195312 -10.6875 26.03125 -10.6875 C 28.75 -10.6875 30.984375 -11.578125 32.734375 -13.359375 C 34.492188 -15.148438 35.375 -17.40625 35.375 -20.125 C 35.375 -22.90625 34.46875 -25.1875 32.65625 -26.96875 C 30.851562 -28.75 28.644531 -29.640625 26.03125 -29.640625 C 23.351562 -29.640625 21.109375 -28.75 19.296875 -26.96875 Z M 19.296875 -26.96875 "/></g></g></g><g fill="#ffffff" fill-opacity="1"><g transform="translate(562.422895, 305.261672)"><g><path d="M 4.71875 0 L 4.71875 -40.328125 L 18.640625 -40.328125 L 18.640625 -34.515625 L 18.796875 -34.515625 C 18.898438 -34.722656 19.066406 -34.984375 19.296875 -35.296875 C 19.535156 -35.617188 20.046875 -36.171875 20.828125 -36.953125 C 21.617188 -37.742188 22.457031 -38.453125 23.34375 -39.078125 C 24.238281 -39.703125 25.394531 -40.265625 26.8125 -40.765625 C 28.226562 -41.265625 29.671875 -41.515625 31.140625 -41.515625 C 32.660156 -41.515625 34.148438 -41.300781 35.609375 -40.875 C 37.078125 -40.457031 38.15625 -40.039062 38.84375 -39.625 L 39.9375 -39 L 34.125 -27.203125 C 32.394531 -28.671875 29.984375 -29.40625 26.890625 -29.40625 C 25.210938 -29.40625 23.769531 -29.035156 22.5625 -28.296875 C 21.351562 -27.566406 20.5 -26.675781 20 -25.625 C 19.507812 -24.582031 19.160156 -23.691406 18.953125 -22.953125 C 18.742188 -22.222656 18.640625 -21.648438 18.640625 -21.234375 L 18.640625 0 Z M 4.71875 0 "/></g></g></g><g fill="#ffffff" fill-opacity="1"><g transform="translate(594.176642, 305.261672)"><g><path d="M 7.46875 -5 C 3.695312 -9.113281 1.8125 -14.15625 1.8125 -20.125 C 1.8125 -26.101562 3.695312 -31.160156 7.46875 -35.296875 C 11.238281 -39.441406 16.035156 -41.515625 21.859375 -41.515625 C 27.203125 -41.515625 31.601562 -39.835938 35.0625 -36.484375 L 35.0625 -40.328125 L 48.984375 -40.328125 L 48.984375 0 L 35.21875 0 L 35.21875 -4.5625 L 35.0625 -4.5625 C 31.601562 -0.738281 27.203125 1.171875 21.859375 1.171875 C 16.035156 1.171875 11.238281 -0.882812 7.46875 -5 Z M 19.296875 -26.96875 C 17.492188 -25.1875 16.59375 -22.90625 16.59375 -20.125 C 16.59375 -17.34375 17.457031 -15.070312 19.1875 -13.3125 C 20.914062 -11.5625 23.195312 -10.6875 26.03125 -10.6875 C 28.75 -10.6875 30.984375 -11.578125 32.734375 -13.359375 C 34.492188 -15.148438 35.375 -17.40625 35.375 -20.125 C 35.375 -22.90625 34.46875 -25.1875 32.65625 -26.96875 C 30.851562 -28.75 28.644531 -29.640625 26.03125 -29.640625 C 23.351562 -29.640625 21.109375 -28.75 19.296875 -26.96875 Z M 19.296875 -26.96875 "/></g></g></g><g fill="#ffffff" fill-opacity="1"><g transform="translate(640.472056, 305.261672)"><g><path d="M 13.6875 -16.828125 C 16.195312 -16.828125 18.328125 -15.945312 20.078125 -14.1875 C 21.835938 -12.4375 22.71875 -10.300781 22.71875 -7.78125 C 22.71875 -5.320312 21.835938 -3.210938 20.078125 -1.453125 C 18.328125 0.296875 16.195312 1.171875 13.6875 1.171875 C 11.21875 1.171875 9.101562 0.296875 7.34375 -1.453125 C 5.59375 -3.210938 4.71875 -5.320312 4.71875 -7.78125 C 4.71875 -10.300781 5.59375 -12.4375 7.34375 -14.1875 C 9.101562 -15.945312 11.21875 -16.828125 13.6875 -16.828125 Z M 13.6875 -16.828125 "/></g></g></g><g fill="#ffffff" fill-opacity="1"><g transform="translate(360.518391, 335.972212)"><g><path d="M 10.640625 -8.4375 C 12.484375 -8.4375 13.40625 -7.285156 13.40625 -4.984375 L 13.40625 -0.765625 C 13.40625 -0.535156 13.335938 -0.347656 13.203125 -0.203125 C 13.066406 -0.0664062 12.882812 0 12.65625 0 C 12.4375 0 12.253906 -0.0703125 12.109375 -0.21875 C 11.972656 -0.363281 11.90625 -0.546875 11.90625 -0.765625 L 11.90625 -4.96875 C 11.90625 -6.351562 11.320312 -7.046875 10.15625 -7.046875 C 9.75 -7.046875 9.378906 -6.953125 9.046875 -6.765625 C 8.710938 -6.578125 8.453125 -6.328125 8.265625 -6.015625 C 8.085938 -5.703125 8 -5.351562 8 -4.96875 L 8 -0.765625 C 8 -0.546875 7.925781 -0.363281 7.78125 -0.21875 C 7.632812 -0.0703125 7.453125 0 7.234375 0 C 7.015625 0 6.832031 -0.0664062 6.6875 -0.203125 C 6.550781 -0.347656 6.484375 -0.535156 6.484375 -0.765625 L 6.484375 -4.984375 C 6.484375 -5.609375 6.351562 -6.109375 6.09375 -6.484375 C 5.832031 -6.859375 5.394531 -7.046875 4.78125 -7.046875 C 4.15625 -7.046875 3.640625 -6.847656 3.234375 -6.453125 C 2.828125 -6.054688 2.625 -5.566406 2.625 -4.984375 L 2.625 -0.765625 C 2.625 -0.546875 2.550781 -0.363281 2.40625 -0.21875 C 2.269531 -0.0703125 2.09375 0 1.875 0 C 1.644531 0 1.460938 -0.0664062 1.328125 -0.203125 C 1.191406 -0.347656 1.125 -0.535156 1.125 -0.765625 L 1.125 -7.53125 C 1.125 -7.738281 1.191406 -7.914062 1.328125 -8.0625 C 1.472656 -8.21875 1.65625 -8.296875 1.875 -8.296875 C 2.09375 -8.296875 2.269531 -8.21875 2.40625 -8.0625 C 2.550781 -7.914062 2.625 -7.738281 2.625 -7.53125 L 2.625 -6.984375 C 2.894531 -7.390625 3.257812 -7.734375 3.71875 -8.015625 C 4.1875 -8.296875 4.6875 -8.4375 5.21875 -8.4375 C 6.53125 -8.4375 7.378906 -7.851562 7.765625 -6.6875 C 8.003906 -7.132812 8.390625 -7.535156 8.921875 -7.890625 C 9.460938 -8.253906 10.035156 -8.4375 10.640625 -8.4375 Z M 10.640625 -8.4375 "/></g></g></g><g fill="#ffffff" fill-opacity="1"><g transform="translate(385.353099, 335.972212)"><g><path d="M 7.84375 -8.40625 C 8.070312 -8.40625 8.253906 -8.332031 8.390625 -8.1875 C 8.535156 -8.050781 8.609375 -7.863281 8.609375 -7.625 L 8.609375 -0.765625 C 8.609375 -0.546875 8.535156 -0.363281 8.390625 -0.21875 C 8.253906 -0.0703125 8.070312 0 7.84375 0 C 7.625 0 7.445312 -0.0664062 7.3125 -0.203125 C 7.175781 -0.347656 7.109375 -0.535156 7.109375 -0.765625 L 7.109375 -1.171875 C 6.828125 -0.804688 6.445312 -0.492188 5.96875 -0.234375 C 5.5 0.0234375 4.992188 0.15625 4.453125 0.15625 C 3.734375 0.15625 3.078125 -0.0234375 2.484375 -0.390625 C 1.898438 -0.765625 1.441406 -1.28125 1.109375 -1.9375 C 0.785156 -2.59375 0.625 -3.332031 0.625 -4.15625 C 0.625 -4.976562 0.785156 -5.71875 1.109375 -6.375 C 1.441406 -7.039062 1.898438 -7.554688 2.484375 -7.921875 C 3.066406 -8.296875 3.707031 -8.484375 4.40625 -8.484375 C 4.957031 -8.484375 5.472656 -8.363281 5.953125 -8.125 C 6.429688 -7.894531 6.816406 -7.601562 7.109375 -7.25 L 7.109375 -7.625 C 7.109375 -7.851562 7.175781 -8.039062 7.3125 -8.1875 C 7.445312 -8.332031 7.625 -8.40625 7.84375 -8.40625 Z M 4.625 -1.234375 C 5.113281 -1.234375 5.550781 -1.359375 5.9375 -1.609375 C 6.320312 -1.867188 6.625 -2.21875 6.84375 -2.65625 C 7.0625 -3.101562 7.171875 -3.601562 7.171875 -4.15625 C 7.171875 -4.707031 7.0625 -5.203125 6.84375 -5.640625 C 6.625 -6.085938 6.320312 -6.441406 5.9375 -6.703125 C 5.550781 -6.960938 5.113281 -7.09375 4.625 -7.09375 C 4.125 -7.09375 3.679688 -6.960938 3.296875 -6.703125 C 2.910156 -6.453125 2.609375 -6.101562 2.390625 -5.65625 C 2.179688 -5.21875 2.078125 -4.71875 2.078125 -4.15625 C 2.078125 -3.601562 2.179688 -3.101562 2.390625 -2.65625 C 2.609375 -2.21875 2.910156 -1.867188 3.296875 -1.609375 C 3.679688 -1.359375 4.125 -1.234375 4.625 -1.234375 Z M 4.625 -1.234375 "/></g></g></g><g fill="#ffffff" fill-opacity="1"><g transform="translate(405.380287, 335.972212)"><g><path d="M 7.890625 -1.3125 C 8.054688 -1.144531 8.140625 -0.960938 8.140625 -0.765625 C 8.140625 -0.546875 8.054688 -0.363281 7.890625 -0.21875 C 7.722656 -0.0820312 7.550781 -0.015625 7.375 -0.015625 C 7.144531 -0.015625 6.960938 -0.0976562 6.828125 -0.265625 L 3.703125 -3.578125 L 2.75 -2.71875 L 2.75 -0.765625 C 2.75 -0.546875 2.675781 -0.363281 2.53125 -0.21875 C 2.394531 -0.0703125 2.222656 0 2.015625 0 C 1.785156 0 1.597656 -0.0703125 1.453125 -0.21875 C 1.316406 -0.363281 1.25 -0.546875 1.25 -0.765625 L 1.25 -10.953125 C 1.25 -11.160156 1.316406 -11.335938 1.453125 -11.484375 C 1.597656 -11.640625 1.785156 -11.71875 2.015625 -11.71875 C 2.222656 -11.71875 2.394531 -11.640625 2.53125 -11.484375 C 2.675781 -11.335938 2.75 -11.160156 2.75 -10.953125 L 2.75 -4.53125 L 6.625 -8.09375 C 6.8125 -8.25 7 -8.328125 7.1875 -8.328125 C 7.363281 -8.328125 7.523438 -8.25 7.671875 -8.09375 C 7.816406 -7.9375 7.890625 -7.773438 7.890625 -7.609375 C 7.890625 -7.398438 7.789062 -7.210938 7.59375 -7.046875 L 4.859375 -4.609375 Z M 7.890625 -1.3125 "/></g></g></g><g fill="#ffffff" fill-opacity="1"><g transform="translate(424.474426, 335.972212)"><g><path d="M 8.40625 -4.46875 C 8.394531 -4.269531 8.316406 -4.101562 8.171875 -3.96875 C 8.023438 -3.84375 7.847656 -3.78125 7.640625 -3.78125 L 2.078125 -3.78125 C 2.148438 -3.007812 2.441406 -2.390625 2.953125 -1.921875 C 3.460938 -1.460938 4.085938 -1.234375 4.828125 -1.234375 C 5.335938 -1.234375 5.75 -1.304688 6.0625 -1.453125 C 6.375 -1.597656 6.65625 -1.789062 6.90625 -2.03125 C 7.0625 -2.125 7.210938 -2.171875 7.359375 -2.171875 C 7.535156 -2.171875 7.6875 -2.101562 7.8125 -1.96875 C 7.9375 -1.84375 8 -1.695312 8 -1.53125 C 8 -1.3125 7.890625 -1.113281 7.671875 -0.9375 C 7.367188 -0.625 6.960938 -0.363281 6.453125 -0.15625 C 5.953125 0.0507812 5.4375 0.15625 4.90625 0.15625 C 4.050781 0.15625 3.296875 -0.0195312 2.640625 -0.375 C 1.992188 -0.738281 1.492188 -1.238281 1.140625 -1.875 C 0.796875 -2.519531 0.625 -3.25 0.625 -4.0625 C 0.625 -4.945312 0.800781 -5.722656 1.15625 -6.390625 C 1.519531 -7.066406 2 -7.582031 2.59375 -7.9375 C 3.195312 -8.300781 3.84375 -8.484375 4.53125 -8.484375 C 5.207031 -8.484375 5.835938 -8.304688 6.421875 -7.953125 C 7.015625 -7.609375 7.488281 -7.128906 7.84375 -6.515625 C 8.207031 -5.910156 8.394531 -5.226562 8.40625 -4.46875 Z M 4.53125 -7.09375 C 3.9375 -7.09375 3.421875 -6.925781 2.984375 -6.59375 C 2.554688 -6.257812 2.273438 -5.742188 2.140625 -5.046875 L 6.8125 -5.046875 L 6.8125 -5.171875 C 6.757812 -5.734375 6.503906 -6.191406 6.046875 -6.546875 C 5.597656 -6.910156 5.09375 -7.09375 4.53125 -7.09375 Z M 4.53125 -7.09375 "/></g></g></g><g fill="#ffffff" fill-opacity="1"><g transform="translate(443.805772, 335.972212)"><g/></g></g><g fill="#ffffff" fill-opacity="1"><g transform="translate(458.503553, 335.972212)"><g><path d="M 7.296875 -8.375 C 7.515625 -8.375 7.695312 -8.300781 7.84375 -8.15625 C 7.988281 -8.007812 8.0625 -7.828125 8.0625 -7.609375 L 8.0625 -0.78125 C 8.0625 0.539062 7.695312 1.53125 6.96875 2.1875 C 6.238281 2.84375 5.273438 3.171875 4.078125 3.171875 C 3.691406 3.171875 3.304688 3.128906 2.921875 3.046875 C 2.546875 2.972656 2.238281 2.875 2 2.75 C 1.601562 2.570312 1.40625 2.332031 1.40625 2.03125 C 1.40625 1.976562 1.414062 1.90625 1.4375 1.8125 C 1.5 1.632812 1.585938 1.5 1.703125 1.40625 C 1.828125 1.3125 1.960938 1.265625 2.109375 1.265625 C 2.191406 1.265625 2.269531 1.28125 2.34375 1.3125 C 2.664062 1.457031 2.953125 1.570312 3.203125 1.65625 C 3.460938 1.738281 3.757812 1.78125 4.09375 1.78125 C 5.726562 1.78125 6.546875 0.941406 6.546875 -0.734375 L 6.546875 -1.046875 C 6.265625 -0.660156 5.898438 -0.363281 5.453125 -0.15625 C 5.003906 0.0507812 4.488281 0.15625 3.90625 0.15625 C 3.03125 0.15625 2.347656 -0.117188 1.859375 -0.671875 C 1.367188 -1.234375 1.125 -1.96875 1.125 -2.875 L 1.125 -7.609375 C 1.125 -7.835938 1.191406 -8.019531 1.328125 -8.15625 C 1.460938 -8.300781 1.644531 -8.375 1.875 -8.375 C 2.09375 -8.375 2.269531 -8.300781 2.40625 -8.15625 C 2.550781 -8.007812 2.625 -7.828125 2.625 -7.609375 L 2.625 -3.28125 C 2.625 -2.582031 2.773438 -2.066406 3.078125 -1.734375 C 3.390625 -1.398438 3.859375 -1.234375 4.484375 -1.234375 C 5.078125 -1.234375 5.566406 -1.421875 5.953125 -1.796875 C 6.347656 -2.179688 6.546875 -2.675781 6.546875 -3.28125 L 6.546875 -7.609375 C 6.546875 -7.835938 6.613281 -8.019531 6.75 -8.15625 C 6.894531 -8.300781 7.078125 -8.375 7.296875 -8.375 Z M 7.296875 -8.375 "/></g></g></g><g fill="#ffffff" fill-opacity="1"><g transform="translate(477.97723, 335.972212)"><g><path d="M 8.96875 -4.140625 C 8.96875 -3.316406 8.78125 -2.578125 8.40625 -1.921875 C 8.039062 -1.273438 7.539062 -0.765625 6.90625 -0.390625 C 6.269531 -0.0234375 5.566406 0.15625 4.796875 0.15625 C 4.023438 0.15625 3.316406 -0.0234375 2.671875 -0.390625 C 2.035156 -0.765625 1.535156 -1.273438 1.171875 -1.921875 C 0.804688 -2.578125 0.625 -3.316406 0.625 -4.140625 C 0.625 -4.960938 0.804688 -5.707031 1.171875 -6.375 C 1.535156 -7.039062 2.035156 -7.554688 2.671875 -7.921875 C 3.316406 -8.296875 4.023438 -8.484375 4.796875 -8.484375 C 5.566406 -8.484375 6.269531 -8.296875 6.90625 -7.921875 C 7.539062 -7.554688 8.039062 -7.039062 8.40625 -6.375 C 8.78125 -5.707031 8.96875 -4.960938 8.96875 -4.140625 Z M 7.46875 -4.140625 C 7.46875 -4.710938 7.347656 -5.222656 7.109375 -5.671875 C 6.878906 -6.117188 6.5625 -6.46875 6.15625 -6.71875 C 5.75 -6.96875 5.296875 -7.09375 4.796875 -7.09375 C 4.296875 -7.09375 3.84375 -6.96875 3.4375 -6.71875 C 3.03125 -6.46875 2.707031 -6.117188 2.46875 -5.671875 C 2.238281 -5.222656 2.125 -4.710938 2.125 -4.140625 C 2.125 -3.585938 2.238281 -3.085938 2.46875 -2.640625 C 2.707031 -2.203125 3.03125 -1.859375 3.4375 -1.609375 C 3.84375 -1.359375 4.296875 -1.234375 4.796875 -1.234375 C 5.296875 -1.234375 5.75 -1.359375 6.15625 -1.609375 C 6.5625 -1.859375 6.878906 -2.203125 7.109375 -2.640625 C 7.347656 -3.085938 7.46875 -3.585938 7.46875 -4.140625 Z M 7.46875 -4.140625 "/></g></g></g><g fill="#ffffff" fill-opacity="1"><g transform="translate(497.8779, 335.972212)"><g><path d="M 7.296875 -8.296875 C 7.515625 -8.296875 7.695312 -8.21875 7.84375 -8.0625 C 7.988281 -7.914062 8.0625 -7.738281 8.0625 -7.53125 L 8.0625 -3.328125 C 8.0625 -2.222656 7.753906 -1.367188 7.140625 -0.765625 C 6.535156 -0.160156 5.679688 0.140625 4.578125 0.140625 C 3.472656 0.140625 2.617188 -0.160156 2.015625 -0.765625 C 1.421875 -1.367188 1.125 -2.222656 1.125 -3.328125 L 1.125 -7.53125 C 1.125 -7.738281 1.191406 -7.914062 1.328125 -8.0625 C 1.472656 -8.21875 1.65625 -8.296875 1.875 -8.296875 C 2.09375 -8.296875 2.269531 -8.21875 2.40625 -8.0625 C 2.550781 -7.914062 2.625 -7.738281 2.625 -7.53125 L 2.625 -3.328125 C 2.625 -1.941406 3.273438 -1.25 4.578125 -1.25 C 5.222656 -1.25 5.710938 -1.421875 6.046875 -1.765625 C 6.378906 -2.117188 6.546875 -2.640625 6.546875 -3.328125 L 6.546875 -7.53125 C 6.546875 -7.738281 6.617188 -7.914062 6.765625 -8.0625 C 6.910156 -8.21875 7.085938 -8.296875 7.296875 -8.296875 Z M 7.296875 -8.296875 "/></g></g></g><g fill="#ffffff" fill-opacity="1"><g transform="translate(517.367389, 335.972212)"><g><path d="M 5.25 -8.484375 C 5.53125 -8.484375 5.769531 -8.410156 5.96875 -8.265625 C 6.164062 -8.128906 6.265625 -7.953125 6.265625 -7.734375 C 6.265625 -7.484375 6.195312 -7.289062 6.0625 -7.15625 C 5.9375 -7.03125 5.78125 -6.96875 5.59375 -6.96875 C 5.488281 -6.96875 5.34375 -7 5.15625 -7.0625 C 4.9375 -7.132812 4.765625 -7.171875 4.640625 -7.171875 C 4.304688 -7.171875 3.984375 -7.054688 3.671875 -6.828125 C 3.367188 -6.597656 3.117188 -6.285156 2.921875 -5.890625 C 2.722656 -5.492188 2.625 -5.054688 2.625 -4.578125 L 2.625 -0.765625 C 2.625 -0.546875 2.550781 -0.363281 2.40625 -0.21875 C 2.269531 -0.0703125 2.09375 0 1.875 0 C 1.644531 0 1.460938 -0.0664062 1.328125 -0.203125 C 1.191406 -0.347656 1.125 -0.535156 1.125 -0.765625 L 1.125 -7.53125 C 1.125 -7.738281 1.191406 -7.914062 1.328125 -8.0625 C 1.472656 -8.21875 1.65625 -8.296875 1.875 -8.296875 C 2.09375 -8.296875 2.269531 -8.21875 2.40625 -8.0625 C 2.550781 -7.914062 2.625 -7.738281 2.625 -7.53125 L 2.625 -6.734375 C 2.851562 -7.242188 3.203125 -7.660156 3.671875 -7.984375 C 4.140625 -8.304688 4.664062 -8.472656 5.25 -8.484375 Z M 5.25 -8.484375 "/></g></g></g><g fill="#ffffff" fill-opacity="1"><g transform="translate(534.21592, 335.972212)"><g/></g></g><g fill="#ffffff" fill-opacity="1"><g transform="translate(548.91371, 335.972212)"><g><path d="M 10.640625 -8.4375 C 12.484375 -8.4375 13.40625 -7.285156 13.40625 -4.984375 L 13.40625 -0.765625 C 13.40625 -0.535156 13.335938 -0.347656 13.203125 -0.203125 C 13.066406 -0.0664062 12.882812 0 12.65625 0 C 12.4375 0 12.253906 -0.0703125 12.109375 -0.21875 C 11.972656 -0.363281 11.90625 -0.546875 11.90625 -0.765625 L 11.90625 -4.96875 C 11.90625 -6.351562 11.320312 -7.046875 10.15625 -7.046875 C 9.75 -7.046875 9.378906 -6.953125 9.046875 -6.765625 C 8.710938 -6.578125 8.453125 -6.328125 8.265625 -6.015625 C 8.085938 -5.703125 8 -5.351562 8 -4.96875 L 8 -0.765625 C 8 -0.546875 7.925781 -0.363281 7.78125 -0.21875 C 7.632812 -0.0703125 7.453125 0 7.234375 0 C 7.015625 0 6.832031 -0.0664062 6.6875 -0.203125 C 6.550781 -0.347656 6.484375 -0.535156 6.484375 -0.765625 L 6.484375 -4.984375 C 6.484375 -5.609375 6.351562 -6.109375 6.09375 -6.484375 C 5.832031 -6.859375 5.394531 -7.046875 4.78125 -7.046875 C 4.15625 -7.046875 3.640625 -6.847656 3.234375 -6.453125 C 2.828125 -6.054688 2.625 -5.566406 2.625 -4.984375 L 2.625 -0.765625 C 2.625 -0.546875 2.550781 -0.363281 2.40625 -0.21875 C 2.269531 -0.0703125 2.09375 0 1.875 0 C 1.644531 0 1.460938 -0.0664062 1.328125 -0.203125 C 1.191406 -0.347656 1.125 -0.535156 1.125 -0.765625 L 1.125 -7.53125 C 1.125 -7.738281 1.191406 -7.914062 1.328125 -8.0625 C 1.472656 -8.21875 1.65625 -8.296875 1.875 -8.296875 C 2.09375 -8.296875 2.269531 -8.21875 2.40625 -8.0625 C 2.550781 -7.914062 2.625 -7.738281 2.625 -7.53125 L 2.625 -6.984375 C 2.894531 -7.390625 3.257812 -7.734375 3.71875 -8.015625 C 4.1875 -8.296875 4.6875 -8.4375 5.21875 -8.4375 C 6.53125 -8.4375 7.378906 -7.851562 7.765625 -6.6875 C 8.003906 -7.132812 8.390625 -7.535156 8.921875 -7.890625 C 9.460938 -8.253906 10.035156 -8.4375 10.640625 -8.4375 Z M 10.640625 -8.4375 "/></g></g></g><g fill="#ffffff" fill-opacity="1"><g transform="translate(573.748428, 335.972212)"><g><path d="M 8.96875 -4.140625 C 8.96875 -3.316406 8.78125 -2.578125 8.40625 -1.921875 C 8.039062 -1.273438 7.539062 -0.765625 6.90625 -0.390625 C 6.269531 -0.0234375 5.566406 0.15625 4.796875 0.15625 C 4.023438 0.15625 3.316406 -0.0234375 2.671875 -0.390625 C 2.035156 -0.765625 1.535156 -1.273438 1.171875 -1.921875 C 0.804688 -2.578125 0.625 -3.316406 0.625 -4.140625 C 0.625 -4.960938 0.804688 -5.707031 1.171875 -6.375 C 1.535156 -7.039062 2.035156 -7.554688 2.671875 -7.921875 C 3.316406 -8.296875 4.023438 -8.484375 4.796875 -8.484375 C 5.566406 -8.484375 6.269531 -8.296875 6.90625 -7.921875 C 7.539062 -7.554688 8.039062 -7.039062 8.40625 -6.375 C 8.78125 -5.707031 8.96875 -4.960938 8.96875 -4.140625 Z M 7.46875 -4.140625 C 7.46875 -4.710938 7.347656 -5.222656 7.109375 -5.671875 C 6.878906 -6.117188 6.5625 -6.46875 6.15625 -6.71875 C 5.75 -6.96875 5.296875 -7.09375 4.796875 -7.09375 C 4.296875 -7.09375 3.84375 -6.96875 3.4375 -6.71875 C 3.03125 -6.46875 2.707031 -6.117188 2.46875 -5.671875 C 2.238281 -5.222656 2.125 -4.710938 2.125 -4.140625 C 2.125 -3.585938 2.238281 -3.085938 2.46875 -2.640625 C 2.707031 -2.203125 3.03125 -1.859375 3.4375 -1.609375 C 3.84375 -1.359375 4.296875 -1.234375 4.796875 -1.234375 C 5.296875 -1.234375 5.75 -1.359375 6.15625 -1.609375 C 6.5625 -1.859375 6.878906 -2.203125 7.109375 -2.640625 C 7.347656 -3.085938 7.46875 -3.585938 7.46875 -4.140625 Z M 7.46875 -4.140625 "/></g></g></g><g fill="#ffffff" fill-opacity="1"><g transform="translate(593.649106, 335.972212)"><g><path d="M 10.640625 -8.4375 C 12.484375 -8.4375 13.40625 -7.285156 13.40625 -4.984375 L 13.40625 -0.765625 C 13.40625 -0.535156 13.335938 -0.347656 13.203125 -0.203125 C 13.066406 -0.0664062 12.882812 0 12.65625 0 C 12.4375 0 12.253906 -0.0703125 12.109375 -0.21875 C 11.972656 -0.363281 11.90625 -0.546875 11.90625 -0.765625 L 11.90625 -4.96875 C 11.90625 -6.351562 11.320312 -7.046875 10.15625 -7.046875 C 9.75 -7.046875 9.378906 -6.953125 9.046875 -6.765625 C 8.710938 -6.578125 8.453125 -6.328125 8.265625 -6.015625 C 8.085938 -5.703125 8 -5.351562 8 -4.96875 L 8 -0.765625 C 8 -0.546875 7.925781 -0.363281 7.78125 -0.21875 C 7.632812 -0.0703125 7.453125 0 7.234375 0 C 7.015625 0 6.832031 -0.0664062 6.6875 -0.203125 C 6.550781 -0.347656 6.484375 -0.535156 6.484375 -0.765625 L 6.484375 -4.984375 C 6.484375 -5.609375 6.351562 -6.109375 6.09375 -6.484375 C 5.832031 -6.859375 5.394531 -7.046875 4.78125 -7.046875 C 4.15625 -7.046875 3.640625 -6.847656 3.234375 -6.453125 C 2.828125 -6.054688 2.625 -5.566406 2.625 -4.984375 L 2.625 -0.765625 C 2.625 -0.546875 2.550781 -0.363281 2.40625 -0.21875 C 2.269531 -0.0703125 2.09375 0 1.875 0 C 1.644531 0 1.460938 -0.0664062 1.328125 -0.203125 C 1.191406 -0.347656 1.125 -0.535156 1.125 -0.765625 L 1.125 -7.53125 C 1.125 -7.738281 1.191406 -7.914062 1.328125 -8.0625 C 1.472656 -8.21875 1.65625 -8.296875 1.875 -8.296875 C 2.09375 -8.296875 2.269531 -8.21875 2.40625 -8.0625 C 2.550781 -7.914062 2.625 -7.738281 2.625 -7.53125 L 2.625 -6.984375 C 2.894531 -7.390625 3.257812 -7.734375 3.71875 -8.015625 C 4.1875 -8.296875 4.6875 -8.4375 5.21875 -8.4375 C 6.53125 -8.4375 7.378906 -7.851562 7.765625 -6.6875 C 8.003906 -7.132812 8.390625 -7.535156 8.921875 -7.890625 C 9.460938 -8.253906 10.035156 -8.4375 10.640625 -8.4375 Z M 10.640625 -8.4375 "/></g></g></g><g fill="#ffffff" fill-opacity="1"><g transform="translate(618.483805, 335.972212)"><g><path d="M 8.40625 -4.46875 C 8.394531 -4.269531 8.316406 -4.101562 8.171875 -3.96875 C 8.023438 -3.84375 7.847656 -3.78125 7.640625 -3.78125 L 2.078125 -3.78125 C 2.148438 -3.007812 2.441406 -2.390625 2.953125 -1.921875 C 3.460938 -1.460938 4.085938 -1.234375 4.828125 -1.234375 C 5.335938 -1.234375 5.75 -1.304688 6.0625 -1.453125 C 6.375 -1.597656 6.65625 -1.789062 6.90625 -2.03125 C 7.0625 -2.125 7.210938 -2.171875 7.359375 -2.171875 C 7.535156 -2.171875 7.6875 -2.101562 7.8125 -1.96875 C 7.9375 -1.84375 8 -1.695312 8 -1.53125 C 8 -1.3125 7.890625 -1.113281 7.671875 -0.9375 C 7.367188 -0.625 6.960938 -0.363281 6.453125 -0.15625 C 5.953125 0.0507812 5.4375 0.15625 4.90625 0.15625 C 4.050781 0.15625 3.296875 -0.0195312 2.640625 -0.375 C 1.992188 -0.738281 1.492188 -1.238281 1.140625 -1.875 C 0.796875 -2.519531 0.625 -3.25 0.625 -4.0625 C 0.625 -4.945312 0.800781 -5.722656 1.15625 -6.390625 C 1.519531 -7.066406 2 -7.582031 2.59375 -7.9375 C 3.195312 -8.300781 3.84375 -8.484375 4.53125 -8.484375 C 5.207031 -8.484375 5.835938 -8.304688 6.421875 -7.953125 C 7.015625 -7.609375 7.488281 -7.128906 7.84375 -6.515625 C 8.207031 -5.910156 8.394531 -5.226562 8.40625 -4.46875 Z M 4.53125 -7.09375 C 3.9375 -7.09375 3.421875 -6.925781 2.984375 -6.59375 C 2.554688 -6.257812 2.273438 -5.742188 2.140625 -5.046875 L 6.8125 -5.046875 L 6.8125 -5.171875 C 6.757812 -5.734375 6.503906 -6.191406 6.046875 -6.546875 C 5.597656 -6.910156 5.09375 -7.09375 4.53125 -7.09375 Z M 4.53125 -7.09375 "/></g></g></g><g fill="#ffffff" fill-opacity="1"><g transform="translate(637.815159, 335.972212)"><g><path d="M 5.34375 -8.484375 C 7.25 -8.484375 8.203125 -7.34375 8.203125 -5.0625 L 8.203125 -0.765625 C 8.203125 -0.546875 8.128906 -0.363281 7.984375 -0.21875 C 7.835938 -0.0703125 7.65625 0 7.4375 0 C 7.226562 0 7.050781 -0.0703125 6.90625 -0.21875 C 6.757812 -0.363281 6.6875 -0.546875 6.6875 -0.765625 L 6.6875 -5.046875 C 6.6875 -5.671875 6.546875 -6.164062 6.265625 -6.53125 C 5.984375 -6.90625 5.519531 -7.09375 4.875 -7.09375 C 4.445312 -7.09375 4.0625 -7 3.71875 -6.8125 C 3.382812 -6.625 3.117188 -6.375 2.921875 -6.0625 C 2.722656 -5.757812 2.625 -5.421875 2.625 -5.046875 L 2.625 -0.765625 C 2.625 -0.546875 2.550781 -0.363281 2.40625 -0.21875 C 2.269531 -0.0703125 2.09375 0 1.875 0 C 1.644531 0 1.460938 -0.0664062 1.328125 -0.203125 C 1.191406 -0.347656 1.125 -0.535156 1.125 -0.765625 L 1.125 -7.53125 C 1.125 -7.738281 1.191406 -7.914062 1.328125 -8.0625 C 1.472656 -8.21875 1.65625 -8.296875 1.875 -8.296875 C 2.09375 -8.296875 2.269531 -8.21875 2.40625 -8.0625 C 2.550781 -7.914062 2.625 -7.738281 2.625 -7.53125 L 2.625 -6.984375 C 2.894531 -7.398438 3.273438 -7.753906 3.765625 -8.046875 C 4.265625 -8.335938 4.789062 -8.484375 5.34375 -8.484375 Z M 5.34375 -8.484375 "/></g></g></g><g fill="#ffffff" fill-opacity="1"><g transform="translate(657.446988, 335.972212)"><g><path d="M 3.375 -6.828125 L 3.375 -2.109375 C 3.375 -1.578125 3.609375 -1.3125 4.078125 -1.3125 C 4.148438 -1.3125 4.25 -1.328125 4.375 -1.359375 C 4.507812 -1.398438 4.613281 -1.421875 4.6875 -1.421875 C 4.820312 -1.421875 4.9375 -1.363281 5.03125 -1.25 C 5.125 -1.132812 5.171875 -0.988281 5.171875 -0.8125 C 5.171875 -0.582031 5.046875 -0.390625 4.796875 -0.234375 C 4.546875 -0.078125 4.257812 0 3.9375 0 C 3.59375 0 3.273438 -0.0351562 2.984375 -0.109375 C 2.691406 -0.179688 2.429688 -0.367188 2.203125 -0.671875 C 1.984375 -0.972656 1.875 -1.429688 1.875 -2.046875 L 1.875 -6.828125 L 0.953125 -6.828125 C 0.753906 -6.828125 0.585938 -6.890625 0.453125 -7.015625 C 0.316406 -7.148438 0.25 -7.316406 0.25 -7.515625 C 0.25 -7.710938 0.316406 -7.875 0.453125 -8 C 0.585938 -8.132812 0.753906 -8.203125 0.953125 -8.203125 L 1.875 -8.203125 L 1.875 -9.53125 C 1.875 -9.738281 1.941406 -9.914062 2.078125 -10.0625 C 2.222656 -10.207031 2.40625 -10.28125 2.625 -10.28125 C 2.832031 -10.28125 3.007812 -10.207031 3.15625 -10.0625 C 3.300781 -9.914062 3.375 -9.738281 3.375 -9.53125 L 3.375 -8.203125 L 4.6875 -8.203125 C 4.882812 -8.203125 5.046875 -8.132812 5.171875 -8 C 5.304688 -7.863281 5.375 -7.695312 5.375 -7.5 C 5.375 -7.300781 5.304688 -7.140625 5.171875 -7.015625 C 5.046875 -6.890625 4.882812 -6.828125 4.6875 -6.828125 Z M 3.375 -6.828125 "/></g></g></g><g clip-path="url(#f97957a7b9)"><g clip-path="url(#d8c051cdb0)"><path fill="url(#ad586f27b0)" d="M 327.234375 225.449219 L 327.234375 312.402344 L 414.191406 312.402344 L 414.191406 225.449219 Z M 327.234375 225.449219 " fill-rule="nonzero"/></g></g></svg>