<svg xmlns="http://www.w3.org/2000/svg" xmlns:xlink="http://www.w3.org/1999/xlink" width="1120" zoomAndPan="magnify" viewBox="0 0 840 839.999992" height="1120" preserveAspectRatio="xMidYMid meet" version="1.0"><defs><g/></defs><g fill="#000000" fill-opacity="0.4"><g transform="translate(250.675334, 450.255525)"><g><path d="M 21.796875 -58.84375 L 36.125 -26.84375 L 50.46875 -58.84375 L 74.5625 -58.84375 L 43.015625 0 L 29.25 0 L -2.296875 -58.84375 Z M 21.796875 -58.84375 "/></g></g></g><g fill="#000000" fill-opacity="0.4"><g transform="translate(312.144051, 450.255525)"><g><path d="M 8.828125 -91.640625 C 11.203125 -94.015625 14.03125 -95.203125 17.3125 -95.203125 C 20.601562 -95.203125 23.429688 -94.015625 25.796875 -91.640625 C 28.171875 -89.273438 29.359375 -86.445312 29.359375 -83.15625 C 29.359375 -79.875 28.171875 -77.046875 25.796875 -74.671875 C 23.429688 -72.296875 20.601562 -71.109375 17.3125 -71.109375 C 14.03125 -71.109375 11.203125 -72.296875 8.828125 -74.671875 C 6.460938 -77.046875 5.28125 -79.875 5.28125 -83.15625 C 5.28125 -86.445312 6.460938 -89.273438 8.828125 -91.640625 Z M 6.875 -58.84375 L 6.875 0 L 27.1875 0 L 27.1875 -58.84375 Z M 6.875 -58.84375 "/></g></g></g><g fill="#000000" fill-opacity="0.4"><g transform="translate(335.995674, 450.255525)"><g><path d="M 32.46875 -60.5625 C 35.832031 -60.5625 39.15625 -60.175781 42.4375 -59.40625 C 45.726562 -58.644531 48.175781 -57.882812 49.78125 -57.125 L 52.1875 -55.96875 L 45.53125 -42.671875 C 40.945312 -45.117188 36.59375 -46.34375 32.46875 -46.34375 C 30.164062 -46.34375 28.535156 -46.09375 27.578125 -45.59375 C 26.628906 -45.09375 26.15625 -44.15625 26.15625 -42.78125 C 26.15625 -42.476562 26.191406 -42.171875 26.265625 -41.859375 C 26.335938 -41.554688 26.488281 -41.269531 26.71875 -41 C 26.945312 -40.738281 27.15625 -40.507812 27.34375 -40.3125 C 27.539062 -40.125 27.867188 -39.914062 28.328125 -39.6875 C 28.785156 -39.457031 29.148438 -39.285156 29.421875 -39.171875 C 29.691406 -39.054688 30.128906 -38.882812 30.734375 -38.65625 C 31.347656 -38.425781 31.804688 -38.253906 32.109375 -38.140625 C 32.421875 -38.023438 32.9375 -37.851562 33.65625 -37.625 C 34.382812 -37.394531 34.941406 -37.238281 35.328125 -37.15625 C 37.703125 -36.46875 39.765625 -35.703125 41.515625 -34.859375 C 43.273438 -34.023438 45.128906 -32.878906 47.078125 -31.421875 C 49.035156 -29.972656 50.546875 -28.140625 51.609375 -25.921875 C 52.679688 -23.703125 53.21875 -21.179688 53.21875 -18.359375 C 53.21875 -4.972656 43.925781 1.71875 25.34375 1.71875 C 21.144531 1.71875 17.148438 1.070312 13.359375 -0.21875 C 9.578125 -1.519531 6.84375 -2.820312 5.15625 -4.125 L 2.640625 -6.1875 L 10.890625 -20.078125 C 11.503906 -19.535156 12.304688 -18.898438 13.296875 -18.171875 C 14.296875 -17.453125 16.09375 -16.460938 18.6875 -15.203125 C 21.289062 -13.941406 23.550781 -13.3125 25.46875 -13.3125 C 29.664062 -13.3125 31.765625 -14.722656 31.765625 -17.546875 C 31.765625 -18.847656 31.226562 -19.859375 30.15625 -20.578125 C 29.09375 -21.304688 27.28125 -22.128906 24.71875 -23.046875 C 22.15625 -23.972656 20.148438 -24.816406 18.703125 -25.578125 C 15.023438 -27.492188 12.113281 -29.65625 9.96875 -32.0625 C 7.832031 -34.46875 6.765625 -37.660156 6.765625 -41.640625 C 6.765625 -47.597656 9.078125 -52.238281 13.703125 -55.5625 C 18.328125 -58.894531 24.582031 -60.5625 32.46875 -60.5625 Z M 32.46875 -60.5625 "/></g></g></g><g fill="#000000" fill-opacity="0.4"><g transform="translate(381.637693, 450.255525)"><g><path d="M 12.4375 -7 C 5.90625 -12.8125 2.640625 -20.265625 2.640625 -29.359375 C 2.640625 -38.460938 6.039062 -45.9375 12.84375 -51.78125 C 19.65625 -57.632812 28.066406 -60.5625 38.078125 -60.5625 C 47.941406 -60.5625 56.257812 -57.617188 63.03125 -51.734375 C 69.800781 -45.847656 73.1875 -38.390625 73.1875 -29.359375 C 73.1875 -20.335938 69.878906 -12.898438 63.265625 -7.046875 C 56.648438 -1.203125 48.253906 1.71875 38.078125 1.71875 C 27.523438 1.71875 18.976562 -1.1875 12.4375 -7 Z M 28.15625 -39.34375 C 25.519531 -36.738281 24.203125 -33.410156 24.203125 -29.359375 C 24.203125 -25.304688 25.460938 -22 27.984375 -19.4375 C 30.503906 -16.875 33.832031 -15.59375 37.96875 -15.59375 C 41.945312 -15.59375 45.210938 -16.894531 47.765625 -19.5 C 50.328125 -22.101562 51.609375 -25.390625 51.609375 -29.359375 C 51.609375 -33.410156 50.289062 -36.738281 47.65625 -39.34375 C 45.019531 -41.945312 41.789062 -43.25 37.96875 -43.25 C 34.0625 -43.25 30.789062 -41.945312 28.15625 -39.34375 Z M 28.15625 -39.34375 "/></g></g></g><g fill="#000000" fill-opacity="0.4"><g transform="translate(446.432264, 450.255525)"><g><path d="M 6.875 0 L 6.875 -58.84375 L 27.1875 -58.84375 L 27.1875 -50.359375 L 27.40625 -50.359375 C 27.5625 -50.660156 27.8125 -51.039062 28.15625 -51.5 C 28.5 -51.957031 29.242188 -52.757812 30.390625 -53.90625 C 31.535156 -55.050781 32.757812 -56.082031 34.0625 -57 C 35.363281 -57.925781 37.046875 -58.75 39.109375 -59.46875 C 41.171875 -60.195312 43.273438 -60.5625 45.421875 -60.5625 C 47.640625 -60.5625 49.816406 -60.253906 51.953125 -59.640625 C 54.097656 -59.035156 55.664062 -58.425781 56.65625 -57.8125 L 58.265625 -56.890625 L 49.78125 -39.6875 C 47.257812 -41.832031 43.742188 -42.90625 39.234375 -42.90625 C 36.785156 -42.90625 34.679688 -42.367188 32.921875 -41.296875 C 31.160156 -40.222656 29.914062 -38.921875 29.1875 -37.390625 C 28.46875 -35.859375 27.953125 -34.554688 27.640625 -33.484375 C 27.335938 -32.421875 27.1875 -31.582031 27.1875 -30.96875 L 27.1875 0 Z M 6.875 0 "/></g></g></g><g fill="#000000" fill-opacity="0.4"><g transform="translate(491.844737, 450.255525)"><g><path d="M 10.890625 -7.28125 C 5.390625 -13.28125 2.640625 -20.640625 2.640625 -29.359375 C 2.640625 -38.078125 5.390625 -45.457031 10.890625 -51.5 C 16.398438 -57.539062 23.398438 -60.5625 31.890625 -60.5625 C 39.691406 -60.5625 46.113281 -58.113281 51.15625 -53.21875 L 51.15625 -58.84375 L 71.453125 -58.84375 L 71.453125 0 L 51.390625 0 L 51.390625 -6.65625 L 51.15625 -6.65625 C 46.113281 -1.070312 39.691406 1.71875 31.890625 1.71875 C 23.398438 1.71875 16.398438 -1.28125 10.890625 -7.28125 Z M 28.15625 -39.34375 C 25.519531 -36.738281 24.203125 -33.410156 24.203125 -29.359375 C 24.203125 -25.304688 25.460938 -22 27.984375 -19.4375 C 30.503906 -16.875 33.832031 -15.59375 37.96875 -15.59375 C 41.945312 -15.59375 45.210938 -16.894531 47.765625 -19.5 C 50.328125 -22.101562 51.609375 -25.390625 51.609375 -29.359375 C 51.609375 -33.410156 50.289062 -36.738281 47.65625 -39.34375 C 45.019531 -41.945312 41.789062 -43.25 37.96875 -43.25 C 34.0625 -43.25 30.789062 -41.945312 28.15625 -39.34375 Z M 28.15625 -39.34375 "/></g></g></g><g fill="#000000" fill-opacity="0.4"><g transform="translate(559.391828, 450.255525)"><g><path d="M 19.953125 -24.546875 C 23.628906 -24.546875 26.75 -23.265625 29.3125 -20.703125 C 31.875 -18.140625 33.15625 -15.023438 33.15625 -11.359375 C 33.15625 -7.765625 31.875 -4.6875 29.3125 -2.125 C 26.75 0.4375 23.628906 1.71875 19.953125 1.71875 C 16.359375 1.71875 13.28125 0.4375 10.71875 -2.125 C 8.15625 -4.6875 6.875 -7.765625 6.875 -11.359375 C 6.875 -15.023438 8.15625 -18.140625 10.71875 -20.703125 C 13.28125 -23.265625 16.359375 -24.546875 19.953125 -24.546875 Z M 19.953125 -24.546875 "/></g></g></g><g fill="#ffffff" fill-opacity="1"><g transform="translate(245.605392, 445.185583)"><g><path d="M 21.796875 -58.84375 L 36.125 -26.84375 L 50.46875 -58.84375 L 74.5625 -58.84375 L 43.015625 0 L 29.25 0 L -2.296875 -58.84375 Z M 21.796875 -58.84375 "/></g></g></g><g fill="#ffffff" fill-opacity="1"><g transform="translate(307.074109, 445.185583)"><g><path d="M 8.828125 -91.640625 C 11.203125 -94.015625 14.03125 -95.203125 17.3125 -95.203125 C 20.601562 -95.203125 23.429688 -94.015625 25.796875 -91.640625 C 28.171875 -89.273438 29.359375 -86.445312 29.359375 -83.15625 C 29.359375 -79.875 28.171875 -77.046875 25.796875 -74.671875 C 23.429688 -72.296875 20.601562 -71.109375 17.3125 -71.109375 C 14.03125 -71.109375 11.203125 -72.296875 8.828125 -74.671875 C 6.460938 -77.046875 5.28125 -79.875 5.28125 -83.15625 C 5.28125 -86.445312 6.460938 -89.273438 8.828125 -91.640625 Z M 6.875 -58.84375 L 6.875 0 L 27.1875 0 L 27.1875 -58.84375 Z M 6.875 -58.84375 "/></g></g></g><g fill="#ffffff" fill-opacity="1"><g transform="translate(330.925732, 445.185583)"><g><path d="M 32.46875 -60.5625 C 35.832031 -60.5625 39.15625 -60.175781 42.4375 -59.40625 C 45.726562 -58.644531 48.175781 -57.882812 49.78125 -57.125 L 52.1875 -55.96875 L 45.53125 -42.671875 C 40.945312 -45.117188 36.59375 -46.34375 32.46875 -46.34375 C 30.164062 -46.34375 28.535156 -46.09375 27.578125 -45.59375 C 26.628906 -45.09375 26.15625 -44.15625 26.15625 -42.78125 C 26.15625 -42.476562 26.191406 -42.171875 26.265625 -41.859375 C 26.335938 -41.554688 26.488281 -41.269531 26.71875 -41 C 26.945312 -40.738281 27.15625 -40.507812 27.34375 -40.3125 C 27.539062 -40.125 27.867188 -39.914062 28.328125 -39.6875 C 28.785156 -39.457031 29.148438 -39.285156 29.421875 -39.171875 C 29.691406 -39.054688 30.128906 -38.882812 30.734375 -38.65625 C 31.347656 -38.425781 31.804688 -38.253906 32.109375 -38.140625 C 32.421875 -38.023438 32.9375 -37.851562 33.65625 -37.625 C 34.382812 -37.394531 34.941406 -37.238281 35.328125 -37.15625 C 37.703125 -36.46875 39.765625 -35.703125 41.515625 -34.859375 C 43.273438 -34.023438 45.128906 -32.878906 47.078125 -31.421875 C 49.035156 -29.972656 50.546875 -28.140625 51.609375 -25.921875 C 52.679688 -23.703125 53.21875 -21.179688 53.21875 -18.359375 C 53.21875 -4.972656 43.925781 1.71875 25.34375 1.71875 C 21.144531 1.71875 17.148438 1.070312 13.359375 -0.21875 C 9.578125 -1.519531 6.84375 -2.820312 5.15625 -4.125 L 2.640625 -6.1875 L 10.890625 -20.078125 C 11.503906 -19.535156 12.304688 -18.898438 13.296875 -18.171875 C 14.296875 -17.453125 16.09375 -16.460938 18.6875 -15.203125 C 21.289062 -13.941406 23.550781 -13.3125 25.46875 -13.3125 C 29.664062 -13.3125 31.765625 -14.722656 31.765625 -17.546875 C 31.765625 -18.847656 31.226562 -19.859375 30.15625 -20.578125 C 29.09375 -21.304688 27.28125 -22.128906 24.71875 -23.046875 C 22.15625 -23.972656 20.148438 -24.816406 18.703125 -25.578125 C 15.023438 -27.492188 12.113281 -29.65625 9.96875 -32.0625 C 7.832031 -34.46875 6.765625 -37.660156 6.765625 -41.640625 C 6.765625 -47.597656 9.078125 -52.238281 13.703125 -55.5625 C 18.328125 -58.894531 24.582031 -60.5625 32.46875 -60.5625 Z M 32.46875 -60.5625 "/></g></g></g><g fill="#ffffff" fill-opacity="1"><g transform="translate(376.567751, 445.185583)"><g><path d="M 12.4375 -7 C 5.90625 -12.8125 2.640625 -20.265625 2.640625 -29.359375 C 2.640625 -38.460938 6.039062 -45.9375 12.84375 -51.78125 C 19.65625 -57.632812 28.066406 -60.5625 38.078125 -60.5625 C 47.941406 -60.5625 56.257812 -57.617188 63.03125 -51.734375 C 69.800781 -45.847656 73.1875 -38.390625 73.1875 -29.359375 C 73.1875 -20.335938 69.878906 -12.898438 63.265625 -7.046875 C 56.648438 -1.203125 48.253906 1.71875 38.078125 1.71875 C 27.523438 1.71875 18.976562 -1.1875 12.4375 -7 Z M 28.15625 -39.34375 C 25.519531 -36.738281 24.203125 -33.410156 24.203125 -29.359375 C 24.203125 -25.304688 25.460938 -22 27.984375 -19.4375 C 30.503906 -16.875 33.832031 -15.59375 37.96875 -15.59375 C 41.945312 -15.59375 45.210938 -16.894531 47.765625 -19.5 C 50.328125 -22.101562 51.609375 -25.390625 51.609375 -29.359375 C 51.609375 -33.410156 50.289062 -36.738281 47.65625 -39.34375 C 45.019531 -41.945312 41.789062 -43.25 37.96875 -43.25 C 34.0625 -43.25 30.789062 -41.945312 28.15625 -39.34375 Z M 28.15625 -39.34375 "/></g></g></g><g fill="#ffffff" fill-opacity="1"><g transform="translate(441.362322, 445.185583)"><g><path d="M 6.875 0 L 6.875 -58.84375 L 27.1875 -58.84375 L 27.1875 -50.359375 L 27.40625 -50.359375 C 27.5625 -50.660156 27.8125 -51.039062 28.15625 -51.5 C 28.5 -51.957031 29.242188 -52.757812 30.390625 -53.90625 C 31.535156 -55.050781 32.757812 -56.082031 34.0625 -57 C 35.363281 -57.925781 37.046875 -58.75 39.109375 -59.46875 C 41.171875 -60.195312 43.273438 -60.5625 45.421875 -60.5625 C 47.640625 -60.5625 49.816406 -60.253906 51.953125 -59.640625 C 54.097656 -59.035156 55.664062 -58.425781 56.65625 -57.8125 L 58.265625 -56.890625 L 49.78125 -39.6875 C 47.257812 -41.832031 43.742188 -42.90625 39.234375 -42.90625 C 36.785156 -42.90625 34.679688 -42.367188 32.921875 -41.296875 C 31.160156 -40.222656 29.914062 -38.921875 29.1875 -37.390625 C 28.46875 -35.859375 27.953125 -34.554688 27.640625 -33.484375 C 27.335938 -32.421875 27.1875 -31.582031 27.1875 -30.96875 L 27.1875 0 Z M 6.875 0 "/></g></g></g><g fill="#ffffff" fill-opacity="1"><g transform="translate(486.774795, 445.185583)"><g><path d="M 10.890625 -7.28125 C 5.390625 -13.28125 2.640625 -20.640625 2.640625 -29.359375 C 2.640625 -38.078125 5.390625 -45.457031 10.890625 -51.5 C 16.398438 -57.539062 23.398438 -60.5625 31.890625 -60.5625 C 39.691406 -60.5625 46.113281 -58.113281 51.15625 -53.21875 L 51.15625 -58.84375 L 71.453125 -58.84375 L 71.453125 0 L 51.390625 0 L 51.390625 -6.65625 L 51.15625 -6.65625 C 46.113281 -1.070312 39.691406 1.71875 31.890625 1.71875 C 23.398438 1.71875 16.398438 -1.28125 10.890625 -7.28125 Z M 28.15625 -39.34375 C 25.519531 -36.738281 24.203125 -33.410156 24.203125 -29.359375 C 24.203125 -25.304688 25.460938 -22 27.984375 -19.4375 C 30.503906 -16.875 33.832031 -15.59375 37.96875 -15.59375 C 41.945312 -15.59375 45.210938 -16.894531 47.765625 -19.5 C 50.328125 -22.101562 51.609375 -25.390625 51.609375 -29.359375 C 51.609375 -33.410156 50.289062 -36.738281 47.65625 -39.34375 C 45.019531 -41.945312 41.789062 -43.25 37.96875 -43.25 C 34.0625 -43.25 30.789062 -41.945312 28.15625 -39.34375 Z M 28.15625 -39.34375 "/></g></g></g><g fill="#ffffff" fill-opacity="1"><g transform="translate(554.321886, 445.185583)"><g><path d="M 19.953125 -24.546875 C 23.628906 -24.546875 26.75 -23.265625 29.3125 -20.703125 C 31.875 -18.140625 33.15625 -15.023438 33.15625 -11.359375 C 33.15625 -7.765625 31.875 -4.6875 29.3125 -2.125 C 26.75 0.4375 23.628906 1.71875 19.953125 1.71875 C 16.359375 1.71875 13.28125 0.4375 10.71875 -2.125 C 8.15625 -4.6875 6.875 -7.765625 6.875 -11.359375 C 6.875 -15.023438 8.15625 -18.140625 10.71875 -20.703125 C 13.28125 -23.265625 16.359375 -24.546875 19.953125 -24.546875 Z M 19.953125 -24.546875 "/></g></g></g></svg>